<svg width="171" height="36" viewBox="0 0 171 36" fill="none" xmlns="http://www.w3.org/2000/svg">
<g clip-path="url(#clip0_1_2)">
<path fill-rule="evenodd" clip-rule="evenodd" d="M30.6166 19.5C30.6166 27.2965 24.2965 33.6166 16.5 33.6166C8.70357 33.6166 2.38333 27.2965 2.38333 19.5C2.38333 11.7035 8.70357 5.38333 16.5 5.38333C24.2965 5.38333 30.6166 11.7035 30.6166 19.5ZM33 19.5C33 28.6127 25.6127 36 16.5 36C7.3873 36 0 28.6127 0 19.5C0 10.3873 7.3873 3 16.5 3C25.6127 3 33 10.3873 33 19.5ZM25.6035 12.1035C25.6035 13.0462 24.8393 13.8104 23.8966 13.8104C22.9539 13.8104 22.1898 13.0462 22.1898 12.1035C22.1898 11.1608 22.9539 10.3966 23.8966 10.3966C24.8393 10.3966 25.6035 11.1608 25.6035 12.1035ZM11.5367 20.8299C12.2712 23.571 15.0887 25.1977 17.8298 24.4632C20.5709 23.7287 22.1976 20.9112 21.4631 18.1701C20.7286 15.429 17.9111 13.8023 15.17 14.5368C12.4289 15.2713 10.8022 18.0888 11.5367 20.8299ZM9.23453 21.4468C10.3097 25.4593 14.4341 27.8405 18.4466 26.7654C22.4591 25.6901 24.8403 21.5658 23.7652 17.5532C22.69 13.5407 18.5657 11.1595 14.5531 12.2347C10.5406 13.3099 8.15938 17.4342 9.23453 21.4468Z" fill="url(#paint0_linear_1_2)"/>
<path d="M67.48 28.65C66.4053 28.65 65.3047 28.494 64.178 28.182C63.0513 27.87 61.8987 27.3413 60.72 26.596C60.1307 27.2893 59.5327 27.7833 58.926 28.078C58.3193 28.3727 57.7647 28.52 57.262 28.52C56.43 28.52 55.754 28.286 55.234 27.818C54.7313 27.3327 54.48 26.6827 54.48 25.868C54.48 25.3133 54.6187 24.7673 54.896 24.23C55.1733 23.6927 55.5893 23.2507 56.144 22.904C56.716 22.54 57.418 22.358 58.25 22.358L63.242 15.702C62.0113 15.6673 60.9107 15.5027 59.94 15.208C58.9693 14.9133 58.198 14.4627 57.626 13.856C57.0713 13.2493 56.794 12.452 56.794 11.464C56.794 11.1693 56.8113 10.84 56.846 10.476C56.898 10.0947 56.9673 9.68733 57.054 9.254C57.7473 9.53133 58.5707 9.78267 59.524 10.008C60.4947 10.216 61.474 10.398 62.462 10.554C63.4673 10.71 64.3773 10.8313 65.192 10.918C66.0067 10.9873 66.6133 11.022 67.012 11.022C67.3933 10.3633 67.8353 9.89533 68.338 9.618C68.8407 9.32333 69.3693 9.176 69.924 9.176C70.7907 9.176 71.4407 9.44467 71.874 9.982C72.3073 10.502 72.524 11.1173 72.524 11.828C72.524 12.4693 72.3247 13.024 71.926 13.492C71.5273 13.9427 70.9987 14.3153 70.34 14.61L63.684 22.93L68.26 23.424L71.406 21.994C71.4927 22.3407 71.5447 22.6873 71.562 23.034C71.5967 23.3633 71.614 23.7013 71.614 24.048C71.614 25.1227 71.4233 25.998 71.042 26.674C70.678 27.35 70.184 27.844 69.56 28.156C68.936 28.4853 68.2427 28.65 67.48 28.65ZM82.2175 10.71C81.4202 10.71 80.7615 10.5367 80.2415 10.19C79.7215 9.84333 79.4615 9.37533 79.4615 8.786C79.4615 8.214 79.6522 7.746 80.0335 7.382C80.4149 7.00067 80.8742 6.71467 81.4115 6.524C81.9662 6.33333 82.4862 6.238 82.9715 6.238C83.7689 6.238 84.4275 6.41133 84.9475 6.758C85.4675 7.08733 85.7275 7.55533 85.7275 8.162C85.7275 8.66467 85.5629 9.11533 85.2335 9.514C84.9042 9.89533 84.4709 10.19 83.9335 10.398C83.4135 10.606 82.8415 10.71 82.2175 10.71ZM80.6575 28.65C79.5482 28.65 78.7595 28.3727 78.2915 27.818C77.8235 27.2633 77.5895 26.466 77.5895 25.426C77.5895 25.0447 77.6415 24.516 77.7455 23.84C77.8495 23.1467 77.9882 22.384 78.1615 21.552C78.3349 20.7027 78.5169 19.8447 78.7075 18.978C78.8982 18.1113 79.0802 17.2967 79.2535 16.534L77.7975 14.35C78.7162 13.7953 79.5915 13.336 80.4235 12.972C81.2555 12.5907 82.0875 12.4 82.9195 12.4C83.6475 12.4 84.1502 12.556 84.4275 12.868C84.7222 13.18 84.8695 13.6653 84.8695 14.324C84.8695 14.584 84.8002 15.0087 84.6615 15.598C84.5402 16.1873 84.3842 16.8807 84.1935 17.678C84.0029 18.4753 83.8122 19.316 83.6215 20.2C83.4309 21.0667 83.2662 21.9247 83.1275 22.774C83.0062 23.606 82.9455 24.3513 82.9455 25.01C82.9455 25.53 83.0062 25.998 83.1275 26.414C83.2662 26.8127 83.4742 27.1333 83.7515 27.376C82.7809 28.2253 81.7495 28.65 80.6575 28.65ZM93.8316 28.65C92.7396 28.65 91.9596 28.3727 91.4916 27.818C91.0236 27.2633 90.7896 26.466 90.7896 25.426C90.7896 25.062 90.8416 24.5073 90.9456 23.762C91.0496 22.9993 91.1796 22.1587 91.3356 21.24C91.5089 20.304 91.6909 19.368 91.8816 18.432C92.0723 17.496 92.2543 16.664 92.4276 15.936L91.0756 13.856C91.7863 13.4573 92.5489 13.1193 93.3636 12.842C94.1956 12.5473 95.0363 12.4 95.8856 12.4C96.6136 12.4 97.1509 12.582 97.4976 12.946C97.8443 13.2927 98.0176 13.7693 98.0176 14.376C98.0176 14.8267 97.9569 15.2947 97.8356 15.78C97.7143 16.2653 97.5756 16.6813 97.4196 17.028L97.6796 17.158C98.7023 15.4073 99.8203 14.1767 101.034 13.466C102.247 12.7553 103.486 12.4 104.752 12.4C105.809 12.4 106.598 12.66 107.118 13.18C107.638 13.6827 107.898 14.4713 107.898 15.546C107.898 16.482 107.768 17.4787 107.508 18.536C107.265 19.576 107.014 20.6507 106.754 21.76C106.494 22.852 106.364 23.9353 106.364 25.01C106.364 26.0847 106.546 26.8733 106.91 27.376C105.991 28.2253 105.038 28.65 104.05 28.65C102.958 28.65 102.178 28.3727 101.71 27.818C101.242 27.2633 101.008 26.466 101.008 25.426C101.008 24.854 101.086 24.2213 101.242 23.528C101.398 22.8173 101.58 22.098 101.788 21.37C101.996 20.642 102.178 19.9573 102.334 19.316C102.49 18.6747 102.568 18.12 102.568 17.652C102.568 17.288 102.498 17.002 102.36 16.794C102.238 16.586 102.013 16.482 101.684 16.482C101.216 16.482 100.67 16.69 100.046 17.106C99.4216 17.522 98.8063 18.1113 98.1996 18.874C97.6103 19.6193 97.1163 20.512 96.7176 21.552C96.3363 22.592 96.1456 23.7447 96.1456 25.01C96.1456 26.0847 96.3276 26.8733 96.6916 27.376C95.7729 28.2253 94.8196 28.65 93.8316 28.65Z" fill="white"/>
</g>
<defs>
<linearGradient id="paint0_linear_1_2" x1="16.5" y1="3" x2="16.5" y2="36" gradientUnits="userSpaceOnUse">
<stop offset="0.0359998" stop-color="#6B5DFF"/>
<stop offset="0.481" stop-color="white"/>
<stop offset="1" stop-color="#FF96E8"/>
</linearGradient>
<clipPath id="clip0_1_2">
<rect width="171" height="36" fill="white"/>
</clipPath>
</defs>
</svg>
